<?xml version="1.0" encoding="UTF-8"?>
<svg xmlns="http://www.w3.org/2000/svg" xmlns:xlink="http://www.w3.org/1999/xlink" width="154px" height="37px" viewBox="0 0 154 37" version="1.1">
<g id="surface1">
<path style=" stroke:none;fill-rule:nonzero;fill:rgb(35.686275%,36.078431%,35.686275%);fill-opacity:1;" d="M 17.746094 3.535156 L 17.746094 3.609375 L 18.796875 3.609375 Z M 14.738281 3.609375 L 14.738281 3.683594 L 16.242188 3.683594 Z M 14.738281 3.609375 "/>
<path style=" stroke:none;fill-rule:nonzero;fill:rgb(48.235294%,20.392157%,11.764706%);fill-opacity:1;" d="M 2.40625 3.984375 L 9.902344 20.003906 L 11.976562 24.441406 L 12.8125 26.019531 L 14.664062 26.09375 L 19.476562 26.09375 L 19.476562 26.019531 C 14.128906 24.492188 13.964844 18.417969 13.382812 13.914062 C 14.4375 15.128906 15.402344 16.289062 16.917969 16.964844 C 19.242188 17.996094 22.234375 18.21875 24.054688 20.15625 C 24.976562 21.132812 25.898438 22.425781 26.183594 23.765625 C 26.246094 24.058594 26.511719 24.746094 26.273438 24.996094 C 26.003906 25.277344 25.296875 25.082031 24.964844 25.03125 C 23.632812 24.839844 22.417969 24.320312 21.28125 23.609375 C 19.996094 22.804688 18.921875 21.222656 17.519531 20.679688 C 17.6875 21.378906 18.503906 21.902344 19.023438 22.355469 C 20.4375 23.585938 22.105469 24.820312 23.835938 25.570312 L 23.535156 26.09375 L 29.328125 26.019531 C 28.75 24.011719 27.496094 22.042969 26.601562 20.15625 C 24.886719 16.519531 23.199219 12.867188 21.449219 9.25 C 20.785156 7.878906 20.171875 6.480469 19.496094 5.113281 C 19.304688 4.730469 19.101562 3.847656 18.695312 3.65625 C 18.367188 3.5 17.800781 3.609375 17.445312 3.609375 C 16.414062 3.609375 15.394531 3.683594 14.363281 3.683594 C 10.378906 3.683594 6.390625 3.984375 2.40625 3.984375 Z M 2.40625 3.984375 "/>
<path style=" stroke:none;fill-rule:nonzero;fill:rgb(100%,41.568627%,3.529412%);fill-opacity:1;" d="M 20.601562 3.609375 C 21.15625 5.527344 22.398438 7.371094 23.25 9.175781 C 25.082031 13.050781 26.941406 16.921875 28.855469 20.757812 C 29.527344 22.097656 30.140625 23.472656 30.8125 24.816406 C 30.992188 25.175781 31.21875 26.007812 31.664062 26.085938 C 32.421875 26.214844 33.296875 26.09375 34.0625 26.09375 L 39.027344 26.09375 C 39.808594 26.09375 41.164062 26.347656 41.863281 25.941406 C 42.289062 25.695312 42.640625 25.117188 42.953125 24.742188 C 43.628906 23.933594 44.316406 23.136719 45 22.335938 C 47.324219 19.605469 49.675781 16.890625 51.976562 14.136719 C 53.476562 12.347656 55.015625 10.585938 56.515625 8.796875 C 56.9375 8.296875 57.671875 7.035156 58.351562 6.929688 C 59.378906 6.769531 60.546875 6.917969 61.585938 6.917969 L 151.519531 6.917969 L 151.519531 3.835938 L 58.277344 3.835938 L 55.71875 3.878906 L 54.460938 5.1875 L 51.605469 8.574219 L 44.128906 17.445312 L 41.464844 20.605469 L 40.15625 22.261719 L 40.003906 22.261719 L 38.148438 18.199219 L 33.753906 8.722656 L 32.050781 5.039062 L 31.328125 3.6875 L 30.453125 3.609375 Z M 20.601562 3.609375 "/>
<path style=" stroke:none;fill-rule:nonzero;fill:rgb(35.686275%,36.078431%,35.686275%);fill-opacity:1;" d="M 11.65625 3.683594 L 11.65625 3.761719 L 13.160156 3.761719 Z M 8.648438 3.761719 L 8.648438 3.835938 L 10.152344 3.835938 Z M 5.5625 3.835938 L 5.5625 3.910156 L 7.144531 3.910156 Z M 151.519531 3.835938 L 151.519531 6.917969 L 151.59375 6.917969 C 151.59375 6.039062 151.859375 4.644531 151.519531 3.835938 Z M 2.480469 3.910156 L 2.480469 3.984375 L 4.0625 3.984375 Z M 58.050781 6.917969 L 58.050781 6.992188 L 151.519531 6.992188 L 149.113281 6.917969 Z M 145.652344 7.894531 L 145.652344 7.972656 L 149.789062 7.972656 L 148.4375 7.894531 Z M 145.652344 7.894531 "/>
<path style=" stroke:none;fill-rule:nonzero;fill:rgb(100%,41.568627%,3.529412%);fill-opacity:1;" d="M 119.859375 26.019531 C 123.976562 26.019531 128.082031 26.09375 132.195312 26.09375 C 134.394531 26.09375 136.769531 26.363281 138.886719 25.636719 C 141.507812 24.742188 144.539062 22.609375 144.746094 19.628906 C 144.773438 19.199219 144.757812 18.765625 144.65625 18.347656 C 143.910156 15.171875 139.75 15.355469 137.230469 14.644531 C 136.289062 14.375 135.238281 14.292969 134.65625 13.386719 C 133.644531 11.8125 136.078125 10.433594 137.304688 10.316406 C 139.003906 10.152344 140.789062 10.304688 142.496094 10.304688 C 145.324219 10.304688 148.160156 10.226562 150.992188 10.226562 L 151.519531 7.894531 C 147.035156 7.894531 142.542969 8.046875 138.058594 8.046875 L 134.148438 8.046875 C 133.628906 8.046875 132.773438 7.941406 132.296875 8.167969 C 132.007812 8.304688 131.933594 8.824219 131.84375 9.097656 C 131.613281 9.78125 131.359375 10.453125 131.117188 11.128906 C 131.03125 11.371094 130.976562 11.734375 130.742188 11.878906 C 130.386719 12.101562 129.726562 11.933594 129.335938 11.894531 C 127.972656 11.765625 125.714844 11.632812 125.476562 13.386719 C 125.433594 13.695312 125.480469 14.058594 125.535156 14.363281 C 125.75 15.535156 126.730469 16.085938 127.757812 16.484375 C 129.871094 17.300781 132.25 17.460938 134.449219 17.964844 C 135.792969 18.273438 137.582031 19.046875 136.703125 20.757812 C 136.011719 22.113281 134.597656 21.878906 133.320312 21.882812 C 132.421875 21.886719 131.519531 21.960938 130.613281 21.960938 C 128.585938 21.960938 126.546875 22.035156 124.523438 22.035156 C 123.902344 22.035156 122.601562 21.785156 122.066406 22.113281 C 121.746094 22.308594 121.574219 22.847656 121.398438 23.164062 C 120.875 24.089844 120.28125 25.042969 119.859375 26.019531 Z M 119.859375 26.019531 "/>
<path style=" stroke:none;fill-rule:nonzero;fill:rgb(35.686275%,36.078431%,35.686275%);fill-opacity:1;" d="M 85.273438 8.046875 L 85.273438 8.121094 L 85.875 8.046875 Z M 137.304688 7.972656 L 137.304688 8.046875 L 141.441406 8.046875 L 140.089844 7.972656 Z M 137.304688 7.972656 "/>
<path style=" stroke:none;fill-rule:nonzero;fill:rgb(100%,41.568627%,3.529412%);fill-opacity:1;" d="M 76.925781 26.019531 L 94.144531 26.09375 L 98.882812 26.171875 L 100.808594 26.125 L 101.273438 25.34375 L 102.265625 23.085938 L 88.128906 23.085938 L 89.460938 20.15625 L 93.265625 11.957031 L 95.046875 8.046875 L 87.976562 8.046875 C 87.363281 8.046875 85.894531 7.773438 85.382812 8.125 C 85.007812 8.382812 84.785156 9.21875 84.605469 9.625 C 84.074219 10.8125 83.480469 11.972656 82.949219 13.160156 C 81.027344 17.480469 78.742188 21.65625 76.925781 26.019531 Z M 76.925781 26.019531 "/>
<path style=" stroke:none;fill-rule:nonzero;fill:rgb(35.686275%,36.078431%,35.686275%);fill-opacity:1;" d="M 102.039062 8.046875 L 102.039062 8.121094 L 122.570312 8.121094 L 120.6875 8.046875 Z M 102.039062 8.046875 "/>
<path style=" stroke:none;fill-rule:nonzero;fill:rgb(100%,41.568627%,3.529412%);fill-opacity:1;" d="M 99.183594 10.605469 L 109.410156 10.605469 L 104.457031 21.660156 L 102.492188 26.171875 L 109.710938 26.171875 C 110.375 26.171875 111.898438 26.457031 112.460938 26.09375 C 112.75 25.910156 112.886719 25.34375 113.019531 25.042969 C 113.367188 24.238281 113.734375 23.4375 114.09375 22.636719 C 115.390625 19.757812 116.660156 16.867188 117.957031 13.988281 C 118.296875 13.238281 118.636719 12.484375 118.96875 11.730469 C 119.109375 11.417969 119.226562 10.941406 119.503906 10.722656 C 120.019531 10.324219 121.554688 10.605469 122.191406 10.605469 L 127.90625 10.605469 C 128.386719 10.605469 129.570312 10.820312 129.960938 10.527344 C 130.429688 10.171875 130.710938 8.613281 130.839844 8.046875 C 123.21875 8.046875 115.601562 8.121094 107.980469 8.121094 L 102.71875 8.121094 C 102.214844 8.121094 101.15625 7.921875 100.726562 8.199219 C 100.097656 8.605469 99.546875 9.949219 99.183594 10.605469 Z M 99.183594 10.605469 "/>
<path style=" stroke:none;fill-rule:nonzero;fill:rgb(35.686275%,36.078431%,35.686275%);fill-opacity:1;" d="M 132.195312 8.046875 L 132.195312 8.121094 L 133.09375 8.121094 Z M 132.195312 8.046875 "/>
<path style=" stroke:none;fill-rule:nonzero;fill:rgb(35.686275%,36.078431%,35.686275%);fill-opacity:1;" d="M 66.097656 8.195312 L 66.097656 8.273438 L 73.015625 8.273438 L 70.910156 8.195312 Z M 73.464844 8.273438 L 73.464844 8.347656 L 73.765625 8.347656 Z M 74.066406 8.347656 L 74.066406 8.421875 L 74.292969 8.421875 Z M 143.921875 10.226562 L 143.921875 10.304688 L 148.359375 10.304688 L 146.929688 10.226562 Z M 137.082031 10.304688 L 137.082031 10.378906 L 139.5625 10.378906 Z M 99.183594 10.605469 L 99.183594 10.679688 L 105.949219 10.679688 L 109.410156 10.753906 C 109.039062 10.328125 107.339844 10.605469 106.777344 10.605469 Z M 119.484375 10.605469 L 119.484375 10.679688 L 130.011719 10.679688 C 129.1875 10.332031 127.753906 10.605469 126.855469 10.605469 Z M 67.074219 11.429688 L 67.074219 11.507812 L 67.300781 11.507812 Z M 67.074219 11.429688 "/>
<path style=" stroke:none;fill-rule:evenodd;fill:rgb(100%,41.568627%,3.529412%);fill-opacity:1;" d="M 57.894531 9.1875 C 58.171875 8.84375 58.476562 8.472656 58.824219 8.273438 C 59.078125 8.132812 59.480469 8.160156 59.828125 8.179688 C 59.945312 8.191406 60.058594 8.195312 60.15625 8.195312 L 63.390625 8.195312 C 64.628906 8.195312 65.871094 8.214844 67.109375 8.234375 C 68.351562 8.253906 69.589844 8.273438 70.835938 8.273438 C 70.886719 8.273438 70.9375 8.273438 70.988281 8.273438 C 73.296875 8.269531 75.671875 8.269531 77.449219 10.003906 C 81 13.464844 79.332031 19.4375 76.949219 23.011719 C 76.8125 23.21875 76.660156 23.480469 76.496094 23.761719 C 76.035156 24.554688 75.484375 25.511719 74.871094 25.867188 C 74.472656 26.101562 73.691406 26.035156 73.050781 25.984375 C 72.808594 25.964844 72.585938 25.945312 72.414062 25.945312 L 58.726562 25.945312 C 58.433594 25.945312 58.105469 25.96875 57.761719 25.992188 C 56.929688 26.046875 56.015625 26.105469 55.34375 25.871094 C 54.929688 25.726562 54.539062 25.464844 54.171875 25.214844 C 54.109375 25.175781 54.050781 25.132812 53.992188 25.09375 L 53.972656 25.082031 C 53.453125 24.734375 52.917969 24.378906 52.5 23.914062 C 51.152344 22.425781 51.199219 20.441406 51.421875 18.574219 C 51.441406 18.414062 51.457031 18.246094 51.472656 18.070312 C 51.527344 17.476562 51.585938 16.820312 51.820312 16.320312 C 52.269531 15.355469 53.15625 14.4375 53.988281 13.574219 C 54.347656 13.199219 54.699219 12.835938 55 12.484375 C 55.84375 11.492188 56.710938 10.519531 57.585938 9.550781 C 57.6875 9.441406 57.789062 9.316406 57.894531 9.1875 Z M 64.9375 12.890625 C 65.601562 12.222656 66.300781 11.527344 67.300781 11.476562 C 69.039062 11.390625 69.464844 13.601562 69.511719 14.890625 C 69.601562 17.449219 68.929688 20.351562 67.152344 22.261719 C 67.097656 22.316406 67.042969 22.375 66.992188 22.433594 C 66.410156 23.0625 65.808594 23.71875 64.894531 23.761719 C 63.0625 23.84375 62.34375 21.585938 62.335938 20.078125 C 62.324219 17.496094 63.015625 14.816406 64.894531 12.933594 C 64.90625 12.921875 64.921875 12.90625 64.9375 12.890625 Z M 64.9375 12.890625 "/>
<path style=" stroke:none;fill-rule:nonzero;fill:rgb(35.686275%,36.078431%,35.686275%);fill-opacity:1;" d="M 67.449219 11.429688 L 67.449219 11.507812 L 67.675781 11.507812 Z M 66.699219 11.507812 L 66.699219 11.582031 L 66.921875 11.582031 Z M 127.003906 11.882812 L 127.003906 11.957031 L 127.757812 11.957031 Z M 129.484375 11.882812 L 129.484375 11.957031 L 130.839844 11.957031 Z M 134.449219 12.632812 L 134.449219 13.011719 L 134.523438 13.011719 Z M 125.425781 13.234375 L 125.425781 13.460938 L 125.5 13.460938 Z M 125.425781 13.6875 L 125.425781 14.214844 L 125.5 14.214844 Z M 125.425781 13.6875 "/>
<path style=" stroke:none;fill-rule:nonzero;fill:rgb(35.686275%,36.078431%,35.686275%);fill-opacity:1;" d="M 79.332031 13.835938 L 79.332031 14.0625 L 79.40625 14.0625 Z M 79.332031 13.835938 "/>
<path style=" stroke:none;fill-rule:nonzero;fill:rgb(75.294118%,33.72549%,12.941176%);fill-opacity:1;" d="M 69.480469 13.914062 L 69.480469 14.890625 L 69.554688 14.890625 Z M 79.40625 14.363281 L 79.40625 16.242188 L 79.480469 16.242188 Z M 125.5 14.363281 L 125.5 14.589844 L 125.578125 14.589844 Z M 136.480469 14.4375 L 136.480469 14.515625 L 136.703125 14.515625 Z M 138.660156 14.964844 L 138.660156 15.039062 L 138.886719 15.039062 Z M 69.480469 15.039062 L 69.480469 16.09375 L 69.554688 16.09375 Z M 139.789062 15.191406 L 139.789062 15.265625 L 140.015625 15.265625 Z M 140.238281 15.265625 L 140.238281 15.339844 L 140.539062 15.339844 Z M 69.40625 16.394531 L 69.40625 16.695312 L 69.480469 16.695312 Z M 51.660156 16.621094 L 51.660156 16.84375 L 51.734375 16.84375 Z M 79.332031 16.695312 L 79.332031 16.996094 L 79.40625 16.996094 Z M 128.660156 16.769531 L 128.660156 16.84375 L 128.882812 16.84375 Z M 51.585938 16.996094 L 51.585938 17.222656 L 51.660156 17.222656 Z M 69.328125 16.996094 L 69.328125 17.296875 L 69.40625 17.296875 Z M 130.011719 17.070312 L 130.011719 17.144531 L 130.238281 17.144531 Z M 131.066406 17.296875 L 131.066406 17.371094 L 131.289062 17.371094 Z M 131.441406 17.371094 L 131.441406 17.445312 L 131.667969 17.445312 Z M 131.816406 17.445312 L 131.816406 17.523438 L 132.042969 17.523438 Z M 69.253906 17.523438 L 69.253906 17.746094 L 69.328125 17.746094 Z M 132.195312 17.523438 L 132.195312 17.597656 L 132.417969 17.597656 Z M 132.570312 17.597656 L 132.570312 17.671875 L 132.796875 17.671875 Z M 79.179688 17.746094 L 79.179688 17.972656 L 79.257812 17.972656 Z M 133.398438 17.746094 L 133.398438 17.824219 L 133.621094 17.824219 Z M 51.433594 17.898438 L 51.433594 18.199219 L 51.507812 18.199219 Z M 69.179688 17.972656 L 69.179688 18.199219 L 69.253906 18.199219 Z M 62.335938 18.199219 L 62.335938 18.425781 L 62.414062 18.425781 Z M 51.359375 18.5 L 51.359375 18.800781 L 51.433594 18.800781 Z M 62.261719 18.574219 L 62.261719 19.027344 L 62.335938 19.027344 Z M 51.28125 19.175781 L 51.28125 19.703125 L 51.359375 19.703125 Z M 62.261719 19.328125 L 62.261719 20.230469 L 62.335938 20.230469 Z M 136.855469 19.476562 L 136.855469 19.703125 L 136.929688 19.703125 Z M 144.675781 19.855469 L 144.675781 20.078125 L 144.75 20.078125 Z M 136.855469 20.078125 L 136.855469 20.304688 L 136.929688 20.304688 Z M 144.601562 20.304688 L 144.601562 20.605469 L 144.675781 20.605469 Z M 62.335938 20.605469 L 62.335938 20.832031 L 62.414062 20.832031 Z M 51.28125 21.132812 L 51.28125 21.507812 L 51.359375 21.507812 Z M 129.5625 21.882812 L 129.5625 21.960938 L 132.796875 21.960938 C 131.949219 21.605469 130.480469 21.882812 129.5625 21.882812 Z M 122.042969 21.960938 L 122.042969 22.035156 L 125.351562 22.035156 C 124.488281 21.671875 122.980469 21.960938 122.042969 21.960938 Z M 88.128906 23.011719 L 88.128906 23.085938 L 102.339844 23.085938 L 100.988281 23.011719 Z M 64.367188 23.765625 L 64.367188 23.839844 L 64.96875 23.839844 Z M 29.328125 25.945312 L 28.875 26.019531 L 28.875 26.09375 Z M 55.570312 25.945312 L 55.570312 26.019531 L 71.585938 26.019531 L 70.082031 25.945312 Z M 137.457031 25.945312 L 137.457031 26.019531 L 137.683594 26.019531 Z M 41.359375 26.019531 L 41.359375 26.09375 L 41.808594 26.09375 Z M 83.164062 26.019531 L 83.164062 26.09375 L 87.679688 26.09375 L 86.25 26.019531 Z M 119.859375 26.019531 L 119.859375 26.09375 L 126.628906 26.09375 L 124.523438 26.019531 Z M 136.855469 26.019531 L 136.855469 26.09375 L 137.15625 26.09375 Z M 12.78125 26.09375 L 12.78125 26.171875 L 19.476562 26.171875 L 17.445312 26.09375 Z M 19.550781 26.09375 L 19.550781 26.171875 L 22.558594 26.171875 C 21.769531 25.839844 20.410156 26.09375 19.550781 26.09375 Z M 92.265625 26.09375 L 92.265625 26.171875 L 96.851562 26.171875 L 95.347656 26.09375 Z M 92.265625 26.09375 "/>
<path style=" stroke:none;fill-rule:nonzero;fill:rgb(100%,41.568627%,3.529412%);fill-opacity:1;" d="M 12.78125 26.621094 L 12.78125 28.351562 L 142.496094 28.351562 L 142.496094 26.621094 Z M 12.78125 26.621094 "/>
<path style=" stroke:none;fill-rule:nonzero;fill:rgb(35.686275%,36.078431%,35.686275%);fill-opacity:1;" d="M 142.496094 26.621094 L 142.496094 28.351562 L 142.570312 28.351562 Z M 142.496094 26.621094 "/>
</g>
</svg>